<svg height="512" viewBox="0 0 512 512" width="512" xmlns="http://www.w3.org/2000/svg"><g id="Solid"><path d="m464 176a24 24 0 0 0 24-24v-104a24 24 0 0 0 -24-24h-104a24 24 0 0 0 -24 24 24 24 0 0 0 24 24h46.059l-95.47 95.469a104.055 104.055 0 0 0 -109.178 0l-95.47-95.469h46.059a24 24 0 0 0 24-24 24 24 0 0 0 -24-24h-104a24 24 0 0 0 -24 24v104a24 24 0 0 0 48 0v-46.059l95.469 95.47a104.055 104.055 0 0 0 0 109.178l-95.469 95.47v-46.059a24 24 0 0 0 -48 0v104a24 24 0 0 0 24 24h104a24 24 0 0 0 24-24 24 24 0 0 0 -24-24h-46.059l95.47-95.469a104.055 104.055 0 0 0 109.178 0l95.47 95.469h-46.059a24 24 0 0 0 -24 24 24 24 0 0 0 24 24h104a24 24 0 0 0 24-24v-104a24 24 0 0 0 -48 0v46.059l-95.469-95.47a104.055 104.055 0 0 0 0-109.178l95.469-95.47v46.059a24 24 0 0 0 24 24zm-208 136a56 56 0 1 1 56-56 56 56 0 0 1 -56 56z"/></g></svg>