<svg width="36" height="479" viewBox="0 0 36 479" fill="none" xmlns="http://www.w3.org/2000/svg">
<path d="M24.3431 181.125C28.0675 175.281 27.5993 176.01 27.7066 175.857C29.0626 173.945 29.7793 171.694 29.7793 169.348C29.7793 163.126 24.7302 158 18.5 158C12.2901 158 7.2207 163.115 7.2207 169.348C7.2207 171.692 7.95242 174.002 9.35283 175.941L12.6568 181.125C9.12431 181.668 3.11914 183.286 3.11914 186.848C3.11914 188.146 3.96666 189.997 8.00424 191.439C10.8235 192.445 14.5509 193 18.5 193C25.8845 193 33.8809 190.917 33.8809 186.848C33.8809 183.285 27.8827 181.669 24.3431 181.125ZM11.0658 174.813C11.0546 174.795 11.0428 174.778 11.0305 174.761C9.86519 173.158 9.27148 171.258 9.27148 169.348C9.27148 164.219 13.4008 160.051 18.5 160.051C23.5886 160.051 27.7285 164.221 27.7285 169.348C27.7285 171.261 27.146 173.096 26.0437 174.657C25.945 174.787 26.4603 173.987 18.5 186.478L11.0658 174.813ZM18.5 190.949C10.434 190.949 5.16992 188.578 5.16992 186.848C5.16992 185.684 7.87477 183.772 13.8685 183.026L17.6353 188.937C17.8235 189.232 18.1496 189.411 18.4999 189.411C18.8503 189.411 19.1764 189.232 19.3646 188.937L23.1313 183.026C29.1252 183.772 31.8301 185.684 31.8301 186.848C31.8301 188.564 26.6134 190.949 18.5 190.949Z" fill="#4A4B4B"/>
<path d="M18.5 164.221C15.673 164.221 13.373 166.521 13.373 169.348C13.373 172.175 15.673 174.475 18.5 174.475C21.327 174.475 23.627 172.175 23.627 169.348C23.627 166.521 21.327 164.221 18.5 164.221ZM18.5 172.424C16.8038 172.424 15.4238 171.044 15.4238 169.348C15.4238 167.651 16.8038 166.271 18.5 166.271C20.1962 166.271 21.5762 167.651 21.5762 169.348C21.5762 171.044 20.1962 172.424 18.5 172.424Z" fill="#4A4B4B"/>
<path d="M30.261 462.667L24.9656 454.366C25.7159 453.972 26.2291 453.185 26.2291 452.28C26.2291 451.29 25.6144 450.441 24.7466 450.093L26.3508 444.485C26.42 444.243 26.3525 443.983 26.1746 443.805C25.1075 442.738 23.3713 442.738 22.3041 443.805C22.0489 444.06 21.7095 444.2 21.3485 444.2C20.9876 444.2 20.6482 444.06 20.3913 443.803L20.3879 443.799C19.3246 442.736 17.5914 442.733 16.5238 443.793L16.5039 443.813C15.9769 444.336 15.1211 444.335 14.5961 443.81L14.591 443.805C13.5239 442.738 11.7877 442.738 10.7205 443.805C10.5425 443.983 10.4751 444.243 10.5444 444.485L12.1521 450.092C11.2825 450.439 10.666 451.289 10.666 452.28C10.666 453.185 11.1792 453.972 11.9295 454.366L6.63407 462.667C4.58543 465.879 4.45561 469.79 6.28681 473.131C8.118 476.471 11.4854 478.465 15.2948 478.465H21.6003C25.4095 478.465 28.7769 476.471 30.6082 473.131C32.4394 469.79 32.3097 465.879 30.261 462.667ZM13.6113 444.784L13.6164 444.789C14.6798 445.853 16.413 445.856 17.4805 444.796L17.5004 444.776C18.0273 444.253 18.8832 444.254 19.4098 444.781L19.4132 444.784C20.4804 445.851 22.2166 445.851 23.2837 444.784C23.7179 444.35 24.3765 444.274 24.8896 444.555L23.3537 449.925H13.5456L12.0057 444.555C12.5188 444.274 13.1772 444.35 13.6113 444.784ZM29.3934 472.465C27.8092 475.354 24.8959 477.08 21.6003 477.08H15.2948C11.9993 477.08 9.086 475.354 7.50176 472.465C5.91752 469.575 6.02981 466.191 7.80212 463.413L13.401 454.636H15.3304C15.7129 454.636 16.0231 454.325 16.0231 453.943C16.0231 453.56 15.7129 453.25 15.3304 453.25H13.0213C12.4865 453.25 12.0515 452.815 12.0515 452.28C12.0515 451.746 12.4865 451.31 13.0213 451.31H23.8738C24.4086 451.31 24.8436 451.746 24.8436 452.28C24.8436 452.815 24.4086 453.25 23.8738 453.25H21.5648C21.1822 453.25 20.8721 453.56 20.8721 453.943C20.8721 454.325 21.1822 454.636 21.5648 454.636H23.4941L29.093 463.413C30.8653 466.191 30.9776 469.575 29.3934 472.465Z" fill="#4A4B4B"/>
<path d="M19.6688 465.622C19.495 465.561 19.3176 465.497 19.1403 465.43V462.291C19.61 462.429 19.9236 462.653 19.9369 462.663C20.2416 462.891 20.674 462.831 20.9042 462.527C21.1353 462.222 21.0753 461.787 20.7704 461.556C20.7297 461.525 20.0856 461.047 19.1403 460.866V460.177C19.1403 459.794 18.8302 459.484 18.4476 459.484C18.065 459.484 17.7549 459.794 17.7549 460.177V460.861C17.6375 460.884 17.5186 460.912 17.398 460.948C16.4231 461.241 15.6944 462.075 15.4962 463.124C15.3153 464.082 15.6223 465.006 16.2973 465.536C16.6636 465.823 17.1212 466.085 17.7549 466.364V470.381C17.2094 470.347 16.8444 470.223 16.2361 469.825C15.916 469.615 15.4866 469.705 15.2772 470.025C15.0677 470.345 15.1575 470.775 15.4776 470.984C16.3647 471.565 16.9654 471.729 17.7549 471.768V472.484C17.7549 472.867 18.065 473.177 18.4476 473.177C18.8302 473.177 19.1403 472.867 19.1403 472.484V471.696C20.6237 471.371 21.4912 470.133 21.6859 468.975C21.9403 467.461 21.1486 466.145 19.6688 465.622ZM17.1523 464.446C16.886 464.237 16.7731 463.829 16.8576 463.381C16.9353 462.97 17.2123 462.473 17.7549 462.29V464.827C17.5271 464.705 17.3216 464.578 17.1523 464.446ZM20.3196 468.745C20.2198 469.339 19.8194 469.968 19.1402 470.246V466.904C19.1628 466.912 19.1842 466.92 19.2071 466.928C20.449 467.367 20.3726 468.43 20.3196 468.745Z" fill="#4A4B4B"/>
<path d="M18.4474 454.635C18.6296 454.635 18.8083 454.561 18.9372 454.432C19.066 454.304 19.1401 454.125 19.1401 453.943C19.1401 453.761 19.066 453.582 18.9372 453.453C18.8083 453.324 18.6296 453.25 18.4474 453.25C18.2652 453.25 18.0865 453.324 17.9577 453.453C17.8288 453.582 17.7547 453.761 17.7547 453.943C17.7547 454.125 17.8288 454.304 17.9577 454.432C18.0865 454.561 18.2652 454.635 18.4474 454.635Z" fill="#4A4B4B"/>
<path d="M23.501 325.136L23.501 327.644H29.1054L20.6716 336.078C19.1853 335.222 17.3379 335.222 15.8514 336.078L7.41773 327.644L13.0413 327.644L13.0413 325.136H3.13558L3.13558 335.042H5.64396L5.64402 329.418L14.0777 337.852C13.222 339.338 13.222 341.185 14.0777 342.672L5.6439 351.106L5.6439 345.501H3.13552L3.13558 355.407H13.0413L13.0413 352.899L7.39834 352.899L15.8514 344.446C17.3378 345.301 19.1851 345.301 20.6715 344.446L29.1245 352.899H23.5009V355.407H33.4066L33.4066 345.501H30.8982L30.8982 351.125L22.4452 342.672C23.3009 341.186 23.3009 339.338 22.4452 337.852L30.8983 329.399L30.8983 335.042H33.4067L33.4067 325.136L23.501 325.136Z" fill="#4A4B4B"/>
<path d="M18 12.1504C21.373 12.1504 24.1172 9.48246 24.1172 6.20312C24.1172 2.92379 21.373 0.255859 18 0.255859C14.627 0.255859 11.8828 2.92379 11.8828 6.20312C11.8828 9.48246 14.627 12.1504 18 12.1504ZM18 2.30664C20.2099 2.30664 22.0078 4.05459 22.0078 6.20312C22.0078 8.35166 20.2099 10.0996 18 10.0996C15.7901 10.0996 13.9922 8.35166 13.9922 6.20312C13.9922 4.05459 15.7901 2.30664 18 2.30664Z" fill="#4A4B4B"/>
<path d="M30.375 12.1504C32.5074 12.1504 34.2422 10.4638 34.2422 8.39062C34.2422 6.31749 32.5074 4.63086 30.375 4.63086C28.2426 4.63086 26.5078 6.31749 26.5078 8.39062C26.5078 10.4638 28.2426 12.1504 30.375 12.1504ZM30.375 6.68164C31.3443 6.68164 32.1328 7.44829 32.1328 8.39062C32.1328 9.33296 31.3443 10.0996 30.375 10.0996C29.4057 10.0996 28.6172 9.33296 28.6172 8.39062C28.6172 7.44829 29.4057 6.68164 30.375 6.68164Z" fill="#4A4B4B"/>
<path d="M31.2258 14.4746H29.5945C27.6723 14.4746 26.0129 15.5787 25.2567 17.1647C23.7 15.5124 21.4638 14.4746 18.9829 14.4746H17.0172C14.5363 14.4746 12.3001 15.5124 10.7433 17.1647C9.98712 15.5787 8.32774 14.4746 6.40547 14.4746H4.77422C2.14172 14.4746 0 16.5443 0 19.0882V26.5537C0 27.6581 0.927703 28.5566 2.06803 28.5566H8.51759C8.62573 29.7803 9.68407 30.7441 10.9703 30.7441H25.0298C26.3159 30.7441 27.3743 29.7803 27.4825 28.5566H33.8583C35.0393 28.5566 36.0001 27.6263 36.0001 26.4826V19.0882C36 16.5443 33.8583 14.4746 31.2258 14.4746ZM2.10938 19.0882C2.10938 17.6751 3.30483 16.5254 4.77422 16.5254H6.40547C7.87486 16.5254 9.07031 17.6751 9.07031 19.0882V19.7903C8.36107 21.5857 8.50781 22.6617 8.50781 26.5059H2.10938V19.0882ZM25.3828 28.3501C25.3828 28.5394 25.2245 28.6934 25.0298 28.6934H10.9702C10.7755 28.6934 10.6172 28.5393 10.6172 28.3501V22.7476C10.6172 19.3166 13.4882 16.5254 17.0171 16.5254H18.9828C22.5118 16.5254 25.3828 19.3166 25.3828 22.7475V28.3501ZM33.8906 26.4826C33.8906 26.518 34.2838 26.5059 27.4922 26.5059C27.4922 22.6332 27.6378 21.5828 26.9297 19.7903V19.0882C26.9297 17.6751 28.1251 16.5254 29.5945 16.5254H31.2258C32.6952 16.5254 33.8906 17.6751 33.8906 19.0882V26.4826Z" fill="#4A4B4B"/>
<path d="M5.625 12.1504C7.75737 12.1504 9.49219 10.4638 9.49219 8.39062C9.49219 6.31749 7.75737 4.63086 5.625 4.63086C3.49263 4.63086 1.75781 6.31749 1.75781 8.39062C1.75781 10.4638 3.49263 12.1504 5.625 12.1504ZM5.625 6.68164C6.59426 6.68164 7.38281 7.44829 7.38281 8.39062C7.38281 9.33296 6.59426 10.0996 5.625 10.0996C4.65574 10.0996 3.86719 9.33296 3.86719 8.39062C3.86719 7.44829 4.65574 6.68164 5.625 6.68164Z" fill="#4A4B4B"/>
</svg>
