<svg width="22" height="22" viewBox="0 0 22 22" fill="none" xmlns="http://www.w3.org/2000/svg">
<path d="M19.6429 0.25H2.35714C1.73199 0.25 1.13244 0.487053 0.690391 0.90901C0.248341 1.33097 0 1.90326 0 2.5L0 19C0 19.5967 0.248341 20.169 0.690391 20.591C1.13244 21.0129 1.73199 21.25 2.35714 21.25H9.0971V14.1105H6.00335V10.75H9.0971V8.18875C9.0971 5.27547 10.9141 3.66625 13.697 3.66625C15.0297 3.66625 16.4234 3.89313 16.4234 3.89313V6.7525H14.8878C13.3748 6.7525 12.9029 7.64875 12.9029 8.56797V10.75H16.2805L15.7403 14.1105H12.9029V21.25H19.6429C20.268 21.25 20.8676 21.0129 21.3096 20.591C21.7517 20.169 22 19.5967 22 19V2.5C22 1.90326 21.7517 1.33097 21.3096 0.90901C20.8676 0.487053 20.268 0.25 19.6429 0.25Z" fill="white"/>
</svg>
