<svg width="23" height="25" viewBox="0 0 23 25" fill="none" xmlns="http://www.w3.org/2000/svg">
<g clip-path="url(#clip0)">
<path d="M11.3799 7.19717C8.25671 7.19717 5.73751 9.60186 5.73751 12.5831C5.73751 15.5644 8.25671 17.969 11.3799 17.969C14.5031 17.969 17.0223 15.5644 17.0223 12.5831C17.0223 9.60186 14.5031 7.19717 11.3799 7.19717ZM11.3799 16.0847C9.36162 16.0847 7.71162 14.5144 7.71162 12.5831C7.71162 10.6519 9.3567 9.08154 11.3799 9.08154C13.4031 9.08154 15.0482 10.6519 15.0482 12.5831C15.0482 14.5144 13.3982 16.0847 11.3799 16.0847ZM18.5692 6.97686C18.5692 7.67529 17.9799 8.23311 17.2531 8.23311C16.5214 8.23311 15.9371 7.67061 15.9371 6.97686C15.9371 6.28311 16.5263 5.72061 17.2531 5.72061C17.9799 5.72061 18.5692 6.28311 18.5692 6.97686ZM22.3062 8.25186C22.2228 6.56904 21.8201 5.07842 20.5286 3.85029C19.242 2.62217 17.6804 2.23779 15.9174 2.15342C14.1004 2.05498 8.65447 2.05498 6.83751 2.15342C5.07948 2.23311 3.51787 2.61748 2.22636 3.84561C0.934842 5.07373 0.537074 6.56436 0.448682 8.24717C0.345557 9.98154 0.345557 15.18 0.448682 16.9144C0.532164 18.5972 0.934842 20.0878 2.22636 21.3159C3.51787 22.544 5.07457 22.9284 6.83751 23.0128C8.65447 23.1112 14.1004 23.1112 15.9174 23.0128C17.6804 22.9331 19.242 22.5487 20.5286 21.3159C21.8152 20.0878 22.2178 18.5972 22.3062 16.9144C22.4094 15.18 22.4094 9.98623 22.3062 8.25186ZM19.9589 18.7753C19.5759 19.694 18.8344 20.4019 17.867 20.7722C16.4183 21.3206 12.9808 21.194 11.3799 21.194C9.77903 21.194 6.33662 21.3159 4.89287 20.7722C3.93037 20.4065 3.18886 19.6987 2.80091 18.7753C2.22636 17.3925 2.35895 14.1112 2.35895 12.5831C2.35895 11.055 2.23127 7.76904 2.80091 6.39092C3.18395 5.47217 3.92546 4.76436 4.89287 4.39404C6.34153 3.84561 9.77903 3.97217 11.3799 3.97217C12.9808 3.97217 16.4232 3.85029 17.867 4.39404C18.8295 4.75967 19.571 5.46748 19.9589 6.39092C20.5335 7.77373 20.4009 11.055 20.4009 12.5831C20.4009 14.1112 20.5335 17.3972 19.9589 18.7753Z" fill="white"/>
</g>
<defs>
<clipPath id="clip0">
<rect width="22" height="24" fill="white" transform="translate(0.375 0.587891)"/>
</clipPath>
</defs>
</svg>
