<svg width="23" height="22" viewBox="0 0 23 22" fill="none" xmlns="http://www.w3.org/2000/svg">
<path d="M21.1786 0.0795898H2.31652C1.45223 0.0795898 0.75 0.759278 0.75 1.59365V19.5655C0.75 20.3999 1.45223 21.0796 2.31652 21.0796H21.1786C22.0429 21.0796 22.75 20.3999 22.75 19.5655V1.59365C22.75 0.759278 22.0429 0.0795898 21.1786 0.0795898ZM7.39911 18.0796H4.13839V8.05771H7.40402V18.0796H7.39911ZM5.76875 6.68896C4.72277 6.68896 3.87812 5.87803 3.87812 4.88428C3.87812 3.89053 4.72277 3.07959 5.76875 3.07959C6.80982 3.07959 7.65937 3.89053 7.65937 4.88428C7.65937 5.88271 6.81473 6.68896 5.76875 6.68896ZM19.6219 18.0796H16.3612V13.2046C16.3612 12.0421 16.3366 10.5468 14.667 10.5468C12.9679 10.5468 12.7076 11.8124 12.7076 13.1202V18.0796H9.44688V8.05771H12.575V9.42646H12.6192C13.0562 8.63896 14.1219 7.80928 15.708 7.80928C19.008 7.80928 19.6219 9.88584 19.6219 12.5858V18.0796Z" fill="white"/>
</svg>
