<svg width="16" height="14" viewBox="0 0 16 14" fill="none" xmlns="http://www.w3.org/2000/svg">
<path d="M15.4166 5.06682C15.5363 4.96303 15.7143 5.06013 15.7143 5.22419V12.0713C15.7143 12.9586 15.0544 13.6784 14.2411 13.6784H1.47321C0.659877 13.6784 0 12.9586 0 12.0713V5.22754C0 5.06013 0.174944 4.96638 0.297712 5.07017C0.985212 5.65276 1.89676 6.39272 5.02734 8.87374C5.67494 9.38937 6.76758 10.4742 7.85714 10.4675C8.95285 10.4775 10.067 9.36928 10.69 8.87374C13.8206 6.39272 14.7291 5.64941 15.4166 5.06682ZM7.85714 9.39272C8.5692 9.40611 9.59431 8.41504 10.1099 8.00656C14.1828 4.78223 14.4927 4.50098 15.4319 3.6974C15.6099 3.54674 15.7143 3.31236 15.7143 3.06459V2.42843C15.7143 1.54116 15.0544 0.821289 14.2411 0.821289H1.47321C0.659877 0.821289 0 1.54116 0 2.42843V3.06459C0 3.31236 0.104353 3.54339 0.282366 3.6974C1.22154 4.49763 1.53153 4.78223 5.60435 8.00656C6.11998 8.41504 7.14509 9.40611 7.85714 9.39272Z" fill="#868686"/>
</svg>
