<svg width="16" height="16" viewBox="0 0 16 16" fill="none" xmlns="http://www.w3.org/2000/svg">
<path d="M14.0306 0.25H1.68367C1.23714 0.25 0.808887 0.419324 0.493137 0.720721C0.177387 1.02212 0 1.4309 0 1.85714L0 13.6429C0 14.0691 0.177387 14.4779 0.493137 14.7793C0.808887 15.0807 1.23714 15.25 1.68367 15.25H14.0306C14.4772 15.25 14.9054 15.0807 15.2212 14.7793C15.5369 14.4779 15.7143 14.0691 15.7143 13.6429V1.85714C15.7143 1.4309 15.5369 1.02212 15.2212 0.720721C14.9054 0.419324 14.4772 0.25 14.0306 0.25ZM13.4557 10.5414L12.9296 12.7177C12.9028 12.8284 12.8376 12.9271 12.7445 12.9978C12.6515 13.0686 12.536 13.1071 12.4171 13.1071C6.80485 13.1071 2.2449 8.76417 2.2449 3.39732C2.24907 3.28484 2.29096 3.17661 2.3644 3.08855C2.43783 3.00049 2.53894 2.93725 2.65284 2.90815L4.93281 2.40592C4.9717 2.39806 5.01128 2.39369 5.05102 2.39286C5.15277 2.39776 5.25128 2.42857 5.33634 2.48209C5.4214 2.53561 5.4899 2.60989 5.53473 2.69721L6.58702 5.04096C6.6128 5.10415 6.62715 5.17106 6.62946 5.23884C6.6209 5.38751 6.55164 5.52707 6.43654 5.62757L5.10749 6.66551C5.91279 8.29473 7.28648 9.60598 8.99327 10.3747L10.0806 9.10603C10.1859 8.99616 10.3321 8.93005 10.4879 8.92188C10.5589 8.92406 10.629 8.93775 10.6952 8.96239L13.1505 9.96685C13.2421 10.0096 13.3199 10.075 13.376 10.1562C13.4321 10.2374 13.4643 10.3314 13.4694 10.4286C13.4687 10.4665 13.4641 10.5043 13.4557 10.5414Z" fill="#868686"/>
</svg>
